<svg width="400" height="120" viewBox="0 0 400 120" xmlns="http://www.w3.org/2000/svg">
  <defs>
    <linearGradient id="bgGradient" x1="0%" y1="0%" x2="100%" y2="100%">
      <stop offset="0%" style="stop-color:#1e3c72;stop-opacity:1" />
      <stop offset="100%" style="stop-color:#2a5298;stop-opacity:1" />
    </linearGradient>
  </defs>
  
  <!-- Background -->
  <rect width="400" height="120" fill="url(#bgGradient)" rx="10"/>
  
  <!-- Shield outline -->
  <path d="M25 25 L25 55 Q25 75 40 85 L55 95 Q60 97 65 95 L80 85 Q95 75 95 55 L95 25 Q95 20 90 20 L30 20 Q25 20 25 25 Z" 
        fill="none" stroke="#00bcd4" stroke-width="3"/>
  
  <!-- Network/Circuit design inside shield -->
  <!-- Main vertical line -->
  <line x1="60" y1="35" x2="60" y2="75" stroke="#4caf50" stroke-width="4" stroke-linecap="round"/>
  
  <!-- Branch lines -->
  <line x1="60" y1="45" x2="75" y2="40" stroke="#4caf50" stroke-width="3" stroke-linecap="round"/>
  <line x1="60" y1="55" x2="45" y2="50" stroke="#4caf50" stroke-width="3" stroke-linecap="round"/>
  <line x1="60" y1="65" x2="75" y2="70" stroke="#4caf50" stroke-width="3" stroke-linecap="round"/>
  
  <!-- Nodes/circles -->
  <circle cx="60" cy="35" r="4" fill="#4caf50"/>
  <circle cx="75" cy="40" r="4" fill="#4caf50"/>
  <circle cx="45" cy="50" r="4" fill="#4caf50"/>
  <circle cx="75" cy="70" r="4" fill="#4caf50"/>
  <circle cx="60" cy="75" r="4" fill="#4caf50"/>
  
  <!-- Text "nSploit" -->
  <text x="120" y="70" font-family="Arial, sans-serif" font-size="36" font-weight="bold" fill="white">nSploit</text>
</svg>
